<svg width="104" height="20" viewBox="0 0 104 20" fill="none" xmlns="http://www.w3.org/2000/svg">
<path d="M2.222 8.858L0.814 8.462V6.944L4.466 6.482H4.532L5.082 6.922V7.78L5.06 8.308C5.57333 7.824 6.24067 7.406 7.062 7.054C7.88333 6.702 8.712 6.526 9.548 6.526C10.4427 6.526 11.1393 6.69467 11.638 7.032C12.1513 7.35467 12.518 7.868 12.738 8.572C12.958 9.276 13.068 10.2293 13.068 11.432V17.504L14.41 17.68V19H8.734V17.68L9.922 17.504V11.432C9.922 10.6693 9.87067 10.0753 9.768 9.65C9.66533 9.21 9.47467 8.89467 9.196 8.704C8.932 8.49867 8.55067 8.396 8.052 8.396C7.216 8.396 6.32133 8.75533 5.368 9.474V17.482L6.688 17.68V19H0.946V17.68L2.222 17.482V8.858ZM16.8446 12.906C16.8446 11.5273 17.1159 10.354 17.6586 9.386C18.2159 8.418 18.9566 7.692 19.8806 7.208C20.8046 6.70933 21.8093 6.46 22.8946 6.46C24.7426 6.46 26.1653 7.032 27.1626 8.176C28.1746 9.30533 28.6806 10.8453 28.6806 12.796C28.6806 14.1893 28.4019 15.3773 27.8446 16.36C27.3019 17.328 26.5686 18.054 25.6446 18.538C24.7353 19.0073 23.7306 19.242 22.6306 19.242C20.7973 19.242 19.3746 18.6773 18.3626 17.548C17.3506 16.404 16.8446 14.8567 16.8446 12.906ZM22.8066 17.812C24.4639 17.812 25.2926 16.2133 25.2926 13.016C25.2926 11.344 25.0946 10.0753 24.6986 9.21C24.3026 8.33 23.6573 7.89 22.7626 7.89C21.0613 7.89 20.2106 9.48867 20.2106 12.686C20.2106 14.358 20.4159 15.634 20.8266 16.514C21.2519 17.3793 21.9119 17.812 22.8066 17.812ZM30.4385 6.768H36.2465V8.044L34.7945 8.33L36.7965 14.314L37.5005 16.646L38.0945 14.38L40.0525 8.33L38.6665 8.044V6.768H43.5065V8.044L42.3625 8.33L38.2705 19.176H35.7185L31.3405 8.33L30.4385 8.044V6.768ZM44.7669 15.568C44.7669 14.2333 45.4342 13.2287 46.7689 12.554C48.1182 11.8793 49.8562 11.5347 51.9829 11.52V11.014C51.9829 10.4127 51.9169 9.94333 51.7849 9.606C51.6676 9.26867 51.4402 9.01933 51.1029 8.858C50.7802 8.682 50.3036 8.594 49.6729 8.594C48.9542 8.594 48.3089 8.68933 47.7369 8.88C47.1649 9.056 46.5709 9.29067 45.9549 9.584L45.2729 8.176C45.4929 7.98533 45.8596 7.758 46.3729 7.494C46.9009 7.23 47.5242 7.00267 48.2429 6.812C48.9616 6.60667 49.7022 6.504 50.4649 6.504C51.5942 6.504 52.4742 6.65067 53.1049 6.944C53.7502 7.23733 54.2122 7.70667 54.4909 8.352C54.7696 8.99733 54.9089 9.86267 54.9089 10.948V17.68H56.0969V18.912C55.8036 18.9853 55.3856 19.0587 54.8429 19.132C54.3002 19.2053 53.8236 19.242 53.4129 19.242C52.9142 19.242 52.5769 19.1687 52.4009 19.022C52.2396 18.8753 52.1589 18.5747 52.1589 18.12V17.526C51.7629 17.966 51.2496 18.362 50.6189 18.714C49.9882 19.066 49.2769 19.242 48.4849 19.242C47.8102 19.242 47.1869 19.1027 46.6149 18.824C46.0576 18.5307 45.6102 18.1127 45.2729 17.57C44.9356 17.0127 44.7669 16.3453 44.7669 15.568ZM49.8929 17.416C50.2009 17.416 50.5529 17.328 50.9489 17.152C51.3449 16.9613 51.6896 16.734 51.9829 16.47V12.862C50.6629 12.862 49.6729 13.0893 49.0129 13.544C48.3676 13.984 48.0449 14.556 48.0449 15.26C48.0449 15.964 48.2062 16.4993 48.5289 16.866C48.8662 17.2327 49.3209 17.416 49.8929 17.416ZM62.9478 19.242C62.0385 19.242 61.2245 19.0293 60.5058 18.604C59.7872 18.164 59.2152 17.4893 58.7898 16.58C58.3645 15.6707 58.1518 14.534 58.1518 13.17C58.1518 11.938 58.4012 10.816 58.8998 9.804C59.4132 8.77733 60.1612 7.96333 61.1438 7.362C62.1265 6.76067 63.3072 6.46 64.6858 6.46C65.2432 6.46 65.7712 6.51867 66.2698 6.636V2.918L64.1138 2.61V1.4L68.6458 0.959999H68.7118L69.3278 1.422V17.658H70.5158V18.912C69.4598 19.132 68.5872 19.242 67.8978 19.242C67.4285 19.242 67.0912 19.1613 66.8858 19C66.6952 18.8533 66.5998 18.5527 66.5998 18.098V17.482C66.2185 17.9953 65.6978 18.4207 65.0378 18.758C64.3778 19.0807 63.6812 19.242 62.9478 19.242ZM64.0918 17.416C64.5758 17.416 65.0012 17.3207 65.3678 17.13C65.7492 16.9247 66.0498 16.6827 66.2698 16.404V8.396C66.1672 8.24933 65.9472 8.12467 65.6098 8.022C65.2872 7.91933 64.9352 7.868 64.5538 7.868C63.6152 7.868 62.8598 8.27867 62.2878 9.1C61.7305 9.90667 61.4518 11.2047 61.4518 12.994C61.4518 14.49 61.6938 15.6047 62.1778 16.338C62.6618 17.0567 63.2998 17.416 64.0918 17.416ZM78.5453 19.242C76.6093 19.242 75.1647 18.6773 74.2113 17.548C73.2727 16.404 72.8033 14.8493 72.8033 12.884C72.8033 11.564 73.0453 10.42 73.5293 9.452C74.028 8.484 74.7247 7.74333 75.6193 7.23C76.514 6.71667 77.548 6.46 78.7213 6.46C80.188 6.46 81.3173 6.84867 82.1093 7.626C82.9013 8.38867 83.312 9.48133 83.3413 10.904C83.3413 11.872 83.2827 12.5907 83.1653 13.06H76.0153C76.074 14.3947 76.3893 15.436 76.9613 16.184C77.5333 16.9173 78.3473 17.284 79.4033 17.284C79.9753 17.284 80.562 17.1887 81.1633 16.998C81.7793 16.8073 82.2633 16.58 82.6153 16.316L83.1653 17.526C82.7693 17.9513 82.124 18.3473 81.2293 18.714C80.3493 19.066 79.4547 19.242 78.5453 19.242ZM80.2613 11.74C80.2907 11.3293 80.3053 11.014 80.3053 10.794C80.3053 8.84333 79.6527 7.868 78.3473 7.868C77.6287 7.868 77.0713 8.154 76.6753 8.726C76.2793 9.298 76.0593 10.3027 76.0153 11.74H80.2613ZM84.855 6.768H90.663V8.044L89.211 8.33L91.213 14.314L91.917 16.646L92.511 14.38L94.469 8.33L93.083 8.044V6.768H97.923V8.044L96.779 8.33L92.687 19.176H90.135L85.757 8.33L84.855 8.044V6.768ZM101.493 19.198C101.039 19.198 100.643 19.044 100.305 18.736C99.9681 18.4133 99.7994 18.01 99.7994 17.526C99.7994 16.9833 99.9901 16.5433 100.371 16.206C100.767 15.854 101.244 15.678 101.801 15.678C102.329 15.678 102.747 15.8467 103.055 16.184C103.363 16.5067 103.517 16.8953 103.517 17.35C103.517 17.922 103.327 18.3767 102.945 18.714C102.579 19.0367 102.095 19.198 101.493 19.198Z" fill="#FFFFFF"/>
</svg>
